<?xml version="1.0" standalone="no"?>
<!DOCTYPE svg PUBLIC "-//W3C//DTD SVG 20010904//EN"
 "http://www.w3.org/TR/2001/REC-SVG-20010904/DTD/svg10.dtd">
<svg version="1.0" xmlns="http://www.w3.org/2000/svg"
 width="1280.000000pt" height="896.000000pt" viewBox="0 0 1280.000000 896.000000"
 preserveAspectRatio="xMidYMid meet">
<metadata>
Created by potrace 1.15, written by Peter Selinger 2001-2017
</metadata>
<g transform="translate(0.000000,896.000000) scale(0.100000,-0.100000)"
fill="#000000" stroke="none">
<path d="M6810 8949 c-41 -3 -104 -14 -140 -24 -74 -20 -294 -123 -326 -153
-13 -13 -30 -55 -45 -114 -31 -121 -34 -346 -5 -477 10 -46 14 -87 9 -91 -4
-5 -40 -20 -80 -33 -181 -63 -360 -156 -515 -265 -98 -70 -266 -217 -291 -255
-10 -16 -29 -28 -49 -31 -145 -24 -347 -62 -467 -88 -142 -32 -146 -33 -260
-106 -234 -150 -458 -335 -484 -400 -18 -44 -47 -189 -47 -232 0 -24 -16 -40
-112 -111 -594 -437 -921 -814 -1099 -1267 -52 -132 -122 -297 -130 -306 -5
-6 -24 -5 -48 2 -59 18 -127 99 -312 373 -213 316 -206 303 -235 406 -43 152
-133 319 -266 498 l-60 80 67 -70 67 -70 -61 76 c-33 42 -115 131 -183 199
-132 132 -537 496 -548 493 -4 -1 -31 18 -61 43 -41 33 -60 43 -79 40 -14 -3
-92 -13 -175 -21 -400 -44 -602 -116 -767 -274 -55 -53 -72 -77 -89 -126 -23
-65 -22 -156 0 -205 l12 -25 162 -1 c186 0 241 -11 376 -76 141 -68 244 -190
321 -383 30 -75 55 -161 126 -435 25 -96 60 -211 79 -255 20 -49 38 -113 45
-165 32 -241 125 -732 171 -907 60 -231 118 -363 248 -566 42 -67 98 -157 125
-199 202 -329 501 -622 827 -808 321 -184 713 -303 1124 -341 l130 -12 130
-82 c72 -45 163 -101 202 -125 89 -52 97 -64 11 -16 -69 38 -58 39 -133 -16
-57 -42 -142 -136 -166 -185 -18 -37 -23 -64 -23 -123 0 -95 22 -138 119 -235
65 -66 86 -82 190 -146 109 -68 346 -162 545 -219 25 -7 56 -16 70 -20 22 -7
116 -30 245 -60 37 -9 188 -38 310 -60 49 -9 124 -20 263 -39 265 -38 667 -69
967 -74 110 -2 175 -3 145 -1 -227 14 -539 49 -550 61 -3 3 15 3 40 -1 554
-77 1170 -68 1670 25 151 28 187 32 95 9 -67 -16 -323 -58 -455 -73 -19 -3 8
-3 60 -1 52 3 138 9 190 15 52 5 138 14 190 20 160 16 440 57 545 79 22 5 67
14 100 20 33 6 76 15 95 20 101 26 249 63 280 70 61 13 281 90 370 127 338
145 520 312 520 478 0 56 -19 135 -32 135 -5 0 -8 7 -8 15 0 9 -35 51 -78 95
-44 44 -76 82 -73 85 3 4 -17 -6 -44 -20 -28 -14 -41 -20 -31 -13 98 66 440
394 562 538 59 70 59 70 334 211 692 355 844 439 1040 566 284 186 422 326
637 648 388 582 579 1170 535 1643 -22 225 -66 381 -158 562 -179 350 -498
593 -857 650 -105 17 -328 7 -427 -19 -264 -69 -504 -215 -740 -451 -115 -114
-270 -307 -270 -336 0 -8 7 -27 16 -42 9 -16 2 -10 -17 13 -132 156 -366 390
-495 493 l-42 33 -4 92 c-3 68 -11 108 -29 153 -70 168 -244 356 -478 514 -77
51 -104 63 -217 94 -71 19 -185 47 -254 62 l-125 27 -65 61 c-197 184 -508
373 -870 526 -69 29 -126 53 -127 54 -1 1 7 51 17 111 32 181 23 378 -22 509
-11 32 -25 46 -85 82 -184 112 -381 161 -573 143z m4815 -2674 c157 -40 324
-160 413 -297 46 -70 131 -271 163 -381 88 -313 -38 -722 -341 -1102 -198
-247 -566 -591 -806 -752 -33 -22 -128 -87 -213 -146 -85 -59 -156 -105 -158
-103 -3 2 11 51 30 108 155 459 164 907 28 1379 -17 60 -18 84 -10 245 15 322
57 513 152 699 53 103 181 235 277 285 144 76 324 101 465 65z m-7385 -4301
c0 -2 -9 0 -20 6 -11 6 -20 13 -20 16 0 2 9 0 20 -6 11 -6 20 -13 20 -16z
m5260 21 c0 -2 -13 -11 -30 -20 -38 -19 -40 -11 -2 9 31 17 32 18 32 11z
m-1303 -961 c-3 -3 -12 -4 -19 -1 -8 3 -5 6 6 6 11 1 17 -2 13 -5z m-70 -20
c-3 -3 -12 -4 -19 -1 -8 3 -5 6 6 6 11 1 17 -2 13 -5z m-2410 -10 c-3 -3 -12
-4 -19 -1 -8 3 -5 6 6 6 11 1 17 -2 13 -5z m2370 0 c-3 -3 -12 -4 -19 -1 -8 3
-5 6 6 6 11 1 17 -2 13 -5z m-2330 -10 c-3 -3 -12 -4 -19 -1 -8 3 -5 6 6 6 11
1 17 -2 13 -5z m2290 0 c-3 -3 -12 -4 -19 -1 -8 3 -5 6 6 6 11 1 17 -2 13 -5z
m-2250 -10 c-3 -3 -12 -4 -19 -1 -8 3 -5 6 6 6 11 1 17 -2 13 -5z m2210 0 c-3
-3 -12 -4 -19 -1 -8 3 -5 6 6 6 11 1 17 -2 13 -5z m-2154 -11 c-7 -2 -21 -2
-30 0 -10 3 -4 5 12 5 17 0 24 -2 18 -5z m44 -9 c-3 -3 -12 -4 -19 -1 -8 3 -5
6 6 6 11 1 17 -2 13 -5z m56 -11 c-7 -2 -21 -2 -30 0 -10 3 -4 5 12 5 17 0 24
-2 18 -5z m50 -10 c-7 -2 -19 -2 -25 0 -7 3 -2 5 12 5 14 0 19 -2 13 -5z m65
-10 c-10 -2 -26 -2 -35 0 -10 3 -2 5 17 5 19 0 27 -2 18 -5z"/>
<path d="M7308 873 c12 -2 32 -2 45 0 12 2 2 4 -23 4 -25 0 -35 -2 -22 -4z"/>
<path d="M7168 863 c17 -2 47 -2 65 0 17 2 3 4 -33 4 -36 0 -50 -2 -32 -4z"/>
<path d="M6838 853 c28 -2 76 -2 105 0 28 2 5 3 -53 3 -58 0 -81 -1 -52 -3z"/>
</g>
</svg>
